<?xml version="1.0" standalone="no"?>
<!DOCTYPE svg PUBLIC "-//W3C//DTD SVG 20010904//EN"
 "http://www.w3.org/TR/2001/REC-SVG-20010904/DTD/svg10.dtd">
<svg version="1.0" xmlns="http://www.w3.org/2000/svg"
 width="512.000000pt" height="512.000000pt" viewBox="0 0 512.000000 512.000000"
 preserveAspectRatio="xMidYMid meet">

<g transform="translate(0.000000,512.000000) scale(0.100000,-0.100000)"
fill="#000000" stroke="none">
<path d="M960 5027 c-49 -16 -133 -102 -148 -153 -9 -32 -12 -576 -12 -2393
l0 -2352 25 -24 c24 -25 26 -25 215 -25 189 0 191 0 215 25 l25 24 0 907 0
906 23 -6 c12 -4 76 -16 142 -29 103 -19 155 -22 370 -22 334 0 544 24 985
111 523 104 732 128 1025 121 203 -5 347 -23 501 -65 83 -22 107 -19 134 15
20 25 20 37 20 1328 0 1507 14 1338 -117 1374 -201 54 -311 66 -603 65 -349 0
-357 -1 -1150 -147 -346 -64 -466 -79 -700 -84 -220 -6 -346 4 -522 39 l-108
21 0 85 c0 109 -14 153 -67 212 -65 72 -158 97 -253 67z m135 -172 l25 -24 0
-2296 0 -2295 -80 0 -80 0 0 2295 0 2296 25 24 c15 16 36 25 55 25 19 0 40 -9
55 -25z m2960 -190 c61 -8 145 -22 188 -31 l77 -17 0 -1199 c0 -1162 -1 -1199
-18 -1193 -40 12 -172 34 -281 46 -75 8 -190 10 -340 6 -263 -7 -390 -23 -912
-121 -498 -94 -605 -107 -869 -113 -234 -5 -374 6 -545 44 l-75 16 0 1199 0
1198 28 -6 c15 -3 43 -10 62 -15 87 -21 298 -39 465 -39 280 0 449 22 1025
130 279 52 534 92 655 103 114 10 440 5 540 -8z"/>
</g>
</svg>
