<?xml version="1.0" standalone="no"?>
<!DOCTYPE svg PUBLIC "-//W3C//DTD SVG 20010904//EN"
 "http://www.w3.org/TR/2001/REC-SVG-20010904/DTD/svg10.dtd">
<svg version="1.0" xmlns="http://www.w3.org/2000/svg"
 width="512.000000pt" height="512.000000pt" viewBox="0 0 512.000000 512.000000"
 preserveAspectRatio="xMidYMid meet">

<g transform="translate(0.000000,512.000000) scale(0.100000,-0.100000)"
fill="#000000" stroke="none">
<path d="M1170 5109 c-29 -12 -67 -45 -83 -74 -7 -12 -14 -86 -17 -180 l-5
-160 -305 -5 c-297 -5 -307 -6 -372 -31 -93 -36 -157 -80 -229 -157 -71 -76
-131 -191 -148 -286 -8 -42 -11 -614 -11 -1876 0 -1777 0 -1819 20 -1894 28
-110 74 -190 155 -271 81 -81 161 -127 271 -155 76 -20 118 -20 2114 -20 1996
0 2038 0 2114 20 110 28 190 74 271 155 81 81 127 161 155 271 20 75 20 117
20 1894 0 1262 -3 1834 -11 1876 -17 95 -77 210 -148 286 -72 77 -136 121
-229 157 -65 25 -75 26 -372 31 l-305 5 -5 162 c-4 143 -7 165 -26 189 -53 72
-138 93 -208 52 -71 -41 -81 -70 -84 -250 l-4 -158 -1168 0 -1168 0 -4 158
c-3 144 -5 160 -27 195 -39 64 -124 93 -191 66z m-100 -948 c0 -199 1 -209 23
-241 32 -48 69 -72 119 -77 58 -7 118 23 149 74 23 36 24 48 27 246 l3 207
1169 0 1169 0 3 -207 c3 -198 4 -210 27 -246 31 -51 91 -81 149 -74 50 5 87
29 120 77 21 32 22 42 22 241 l0 209 273 0 c265 0 273 -1 323 -24 27 -13 66
-42 87 -66 65 -76 67 -90 67 -502 l0 -368 -2240 0 -2240 0 0 368 c0 412 2 426
67 502 21 24 60 53 87 66 50 23 58 24 324 24 l272 0 0 -209z m3728 -2358 c-3
-1258 -3 -1289 -23 -1328 -25 -50 -80 -105 -130 -130 -39 -20 -72 -20 -2085
-20 -2013 0 -2046 0 -2085 20 -50 25 -105 80 -130 130 -20 39 -20 70 -23 1328
l-2 1287 2240 0 2240 0 -2 -1287z"/>
</g>
</svg>
