<?xml version="1.0" standalone="no"?>
<!DOCTYPE svg PUBLIC "-//W3C//DTD SVG 20010904//EN"
 "http://www.w3.org/TR/2001/REC-SVG-20010904/DTD/svg10.dtd">
<svg version="1.0" xmlns="http://www.w3.org/2000/svg"
 width="512.000000pt" height="512.000000pt" viewBox="0 0 512.000000 512.000000"
 preserveAspectRatio="xMidYMid meet">

<g transform="translate(0.000000,512.000000) scale(0.100000,-0.100000)"
fill="#000000" stroke="none">
<path d="M2370 5113 c-664 -63 -1204 -318 -1650 -779 -196 -202 -341 -411
-466 -669 -158 -326 -237 -650 -251 -1020 -15 -426 73 -832 263 -1214 133
-269 271 -459 488 -677 221 -220 412 -357 681 -489 188 -92 309 -137 500 -185
500 -126 1002 -102 1490 71 150 53 408 183 540 271 560 374 952 942 1095 1588
33 150 50 291 57 465 15 426 -73 832 -263 1214 -124 250 -263 447 -458 648
-214 222 -430 379 -711 518 -296 146 -572 225 -900 255 -102 9 -333 11 -415 3z
m545 -342 c634 -107 1171 -457 1523 -995 170 -258 286 -563 339 -891 24 -153
24 -497 0 -650 -108 -668 -474 -1222 -1042 -1580 -243 -153 -537 -261 -850
-312 -154 -24 -497 -24 -650 1 -497 81 -907 288 -1256 636 -345 344 -555 759
-636 1255 -24 153 -24 496 0 650 81 497 291 912 636 1255 382 381 862 605
1401 654 108 10 418 -4 535 -23z"/>
<path d="M2492 4154 c-18 -10 -45 -33 -60 -52 l-27 -35 -3 -761 c-2 -497 1
-773 7 -796 8 -27 101 -126 398 -422 324 -322 395 -388 428 -398 116 -34 229
79 195 195 -10 33 -71 99 -361 390 l-349 350 0 709 c0 786 3 750 -67 803 -43
33 -114 41 -161 17z"/>
</g>
</svg>
